<svg width="16" height="16" viewBox="0 0 16 16" fill="none" xmlns="http://www.w3.org/2000/svg">
<path d="M7.16001 1.62932C7.39755 1.43662 7.69413 1.33145 8.00001 1.33145C8.30589 1.33145 8.60247 1.43662 8.84001 1.62932L13.9253 5.74932C14.1566 5.93658 14.3431 6.17307 14.4714 6.44156C14.5996 6.71005 14.6663 7.00378 14.6667 7.30132V13.3333C14.6667 13.6869 14.5262 14.0261 14.2762 14.2761C14.0261 14.5262 13.687 14.6667 13.3333 14.6667H10.6667C10.3131 14.6667 9.97392 14.5262 9.72387 14.2761C9.47382 14.0261 9.33334 13.6869 9.33334 13.3333V9.33332H6.66668V13.3333C6.66668 13.6869 6.5262 14.0261 6.27615 14.2761C6.0261 14.5262 5.68697 14.6667 5.33334 14.6667H2.66668C2.31305 14.6667 1.97392 14.5262 1.72387 14.2761C1.47382 14.0261 1.33334 13.6869 1.33334 13.3333V7.30266C1.33328 7.00466 1.39982 6.71042 1.52808 6.44143C1.65634 6.17245 1.84309 5.93553 2.07468 5.74799L7.16001 1.62932ZM13.0867 6.78399L8.00001 2.66666L2.91334 6.78399C2.83617 6.84659 2.77397 6.92566 2.73129 7.0154C2.68861 7.10514 2.66654 7.20329 2.66668 7.30266V13.3333H5.33334V9.33332C5.33334 8.9797 5.47382 8.64056 5.72387 8.39052C5.97392 8.14047 6.31305 7.99999 6.66668 7.99999H9.33334C9.68697 7.99999 10.0261 8.14047 10.2762 8.39052C10.5262 8.64056 10.6667 8.9797 10.6667 9.33332V13.3333H13.3333V7.30266C13.3335 7.20329 13.3114 7.10514 13.2687 7.0154C13.226 6.92566 13.1638 6.84659 13.0867 6.78399Z" fill="white"/>
</svg>
