<svg width="18" height="12" viewBox="0 0 18 12" fill="none" xmlns="http://www.w3.org/2000/svg">
<path d="M1.10625 2C1.39965 2 1.68103 1.89464 1.88849 1.70711C2.09595 1.51957 2.2125 1.26522 2.2125 1C2.2125 0.734784 2.09595 0.48043 1.88849 0.292893C1.68103 0.105357 1.39965 0 1.10625 0C0.812854 0 0.531475 0.105357 0.324013 0.292893C0.116551 0.48043 0 0.734784 0 1C0 1.26522 0.116551 1.51957 0.324013 1.70711C0.531475 1.89464 0.812854 2 1.10625 2ZM4.425 1C4.425 0.867392 4.48328 0.740215 4.58701 0.646447C4.69074 0.552679 4.83143 0.5 4.97813 0.5H17.1469C17.2936 0.5 17.4343 0.552679 17.538 0.646447C17.6417 0.740215 17.7 0.867392 17.7 1C17.7 1.13261 17.6417 1.25979 17.538 1.35355C17.4343 1.44732 17.2936 1.5 17.1469 1.5H4.97813C4.83143 1.5 4.69074 1.44732 4.58701 1.35355C4.48328 1.25979 4.425 1.13261 4.425 1ZM4.425 6C4.425 5.86739 4.48328 5.74021 4.58701 5.64645C4.69074 5.55268 4.83143 5.5 4.97813 5.5H17.1469C17.2936 5.5 17.4343 5.55268 17.538 5.64645C17.6417 5.74021 17.7 5.86739 17.7 6C17.7 6.13261 17.6417 6.25979 17.538 6.35355C17.4343 6.44732 17.2936 6.5 17.1469 6.5H4.97813C4.83143 6.5 4.69074 6.44732 4.58701 6.35355C4.48328 6.25979 4.425 6.13261 4.425 6ZM4.97813 10.5C4.83143 10.5 4.69074 10.5527 4.58701 10.6464C4.48328 10.7402 4.425 10.8674 4.425 11C4.425 11.1326 4.48328 11.2598 4.58701 11.3536C4.69074 11.4473 4.83143 11.5 4.97813 11.5H17.1469C17.2936 11.5 17.4343 11.4473 17.538 11.3536C17.6417 11.2598 17.7 11.1326 17.7 11C17.7 10.8674 17.6417 10.7402 17.538 10.6464C17.4343 10.5527 17.2936 10.5 17.1469 10.5H4.97813ZM2.2125 11C2.2125 11.2652 2.09595 11.5196 1.88849 11.7071C1.68103 11.8946 1.39965 12 1.10625 12C0.812854 12 0.531475 11.8946 0.324013 11.7071C0.116551 11.5196 0 11.2652 0 11C0 10.7348 0.116551 10.4804 0.324013 10.2929C0.531475 10.1054 0.812854 10 1.10625 10C1.39965 10 1.68103 10.1054 1.88849 10.2929C2.09595 10.4804 2.2125 10.7348 2.2125 11ZM1.10625 7C1.39965 7 1.68103 6.89464 1.88849 6.70711C2.09595 6.51957 2.2125 6.26522 2.2125 6C2.2125 5.73478 2.09595 5.48043 1.88849 5.29289C1.68103 5.10536 1.39965 5 1.10625 5C0.812854 5 0.531475 5.10536 0.324013 5.29289C0.116551 5.48043 0 5.73478 0 6C0 6.26522 0.116551 6.51957 0.324013 6.70711C0.531475 6.89464 0.812854 7 1.10625 7Z" fill="white"/>
</svg>
