<svg width="12" height="12" viewBox="0 0 12 12" fill="none" xmlns="http://www.w3.org/2000/svg">
<g clip-path="url(#clip0_104_64)">
<path d="M6 9.26529C4.65058 9.26529 3.19828 8.73755 1.80011 7.73909C0.7549 6.99271 0.109782 6.25326 0.0828251 6.2221C-0.0276084 6.09459 -0.0276084 5.90532 0.0828251 5.77778C0.109782 5.74667 0.754873 5.00716 1.80011 4.26079C3.19831 3.26241 4.65061 2.73462 6 2.73462C7.34942 2.73462 8.80175 3.26238 10.1999 4.26079C11.2451 5.00716 11.8902 5.74665 11.9172 5.77778C12.0276 5.90529 12.0276 6.09456 11.9172 6.2221C11.8902 6.25321 11.2451 6.99271 10.1999 7.73909C8.80175 8.73752 7.34944 9.26529 6 9.26529ZM0.804579 5.99998C1.06546 6.26599 1.55782 6.73376 2.20791 7.19637C3.09914 7.83055 4.48048 8.58661 6 8.58661C7.51952 8.58661 8.90089 7.83055 9.79209 7.19637C10.4421 6.73384 10.9345 6.26602 11.1954 5.99998C10.9346 5.73397 10.4422 5.2662 9.79209 4.80359C8.90089 4.16939 7.51952 3.41335 6 3.41335C4.48048 3.41335 3.09914 4.16939 2.20791 4.80359C1.5579 5.26612 1.06551 5.73389 0.804579 5.99998Z" fill="white" stroke="white" stroke-width="0.144783"/>
<path d="M6 8.10388C4.83991 8.10388 3.89612 7.16007 3.89612 6C3.89612 4.83993 4.83991 3.89612 6 3.89612C6.5102 3.89612 7.00237 4.0811 7.38579 4.41701C7.52677 4.5405 7.54094 4.75488 7.41745 4.89586C7.29396 5.03683 7.07955 5.05097 6.9386 4.92751C6.67897 4.70005 6.34561 4.57479 5.99997 4.57479C5.2141 4.57479 4.57476 5.21415 4.57476 6C4.57476 6.78585 5.2141 7.42521 5.99997 7.42521C6.78587 7.42521 7.42518 6.78585 7.42518 6C7.42518 5.81261 7.57712 5.66066 7.76452 5.66066C7.95191 5.66066 8.10385 5.81261 8.10385 6C8.10391 7.16007 7.16009 8.10388 6 8.10388Z" fill="white" stroke="white" stroke-width="0.144783"/>
<path d="M5.99999 6.67863C5.62577 6.67863 5.32132 6.37418 5.32132 5.99996C5.32132 5.62574 5.62577 5.32129 5.99999 5.32129C6.37424 5.32129 6.67866 5.62574 6.67866 5.99996C6.67866 6.37418 6.37424 6.67863 5.99999 6.67863Z" fill="white" stroke="white" stroke-width="0.144783"/>
</g>
<defs>
<clipPath id="clip0_104_64">
<rect width="12" height="12" fill="white"/>
</clipPath>
</defs>
</svg>
